<svg xmlns="http://www.w3.org/2000/svg" width="880" height="300" viewBox="0 0 880 300"><rect width="880" height="300" fill="#fff"/><text x="40" y="90" font-size="20" fill="#163248" text-anchor="start" font-weight="700" font-family="Arial, Helvetica, sans-serif">+12 V</text><text x="840" y="90" font-size="20" fill="#163248" text-anchor="end" font-weight="700" font-family="Arial, Helvetica, sans-serif">0 V</text><path d="M40,110 L150,110" fill="none" stroke="#163248" stroke-width="3" stroke-linejoin="round" stroke-linecap="round"/><path d="M150,110 L158,110" fill="none" stroke="#163248" stroke-width="3" stroke-linejoin="round" stroke-linecap="round"/><path d="M202,110 L210,110" fill="none" stroke="#163248" stroke-width="3" stroke-linejoin="round" stroke-linecap="round"/><circle cx="158" cy="110" r="5" fill="#163248"/><path d="M202,110 L202,94" fill="none" stroke="#163248" stroke-width="3" stroke-linejoin="round" stroke-linecap="round"/><path d="M158,110 L208,98" fill="none" stroke="#163248" stroke-width="3" stroke-linejoin="round" stroke-linecap="round"/><path d="M210,110 L330,110" fill="none" stroke="#163248" stroke-width="3" stroke-linejoin="round" stroke-linecap="round"/><path d="M330,110 L338,110" fill="none" stroke="#163248" stroke-width="3" stroke-linejoin="round" stroke-linecap="round"/><path d="M382,110 L390,110" fill="none" stroke="#163248" stroke-width="3" stroke-linejoin="round" stroke-linecap="round"/><circle cx="338" cy="110" r="5" fill="#163248"/><path d="M338,110 L380,88" fill="none" stroke="#163248" stroke-width="3" stroke-linejoin="round" stroke-linecap="round"/><path d="M390,110 L560,110" fill="none" stroke="#163248" stroke-width="3" stroke-linejoin="round" stroke-linecap="round"/><path d="M290,110 L290,220 L330,220" fill="none" stroke="#163248" stroke-width="3" stroke-linejoin="round" stroke-linecap="round"/><path d="M330,220 L338,220" fill="none" stroke="#163248" stroke-width="3" stroke-linejoin="round" stroke-linecap="round"/><path d="M382,220 L390,220" fill="none" stroke="#163248" stroke-width="3" stroke-linejoin="round" stroke-linecap="round"/><circle cx="338" cy="220" r="5" fill="#163248"/><path d="M338,220 L380,198" fill="none" stroke="#163248" stroke-width="3" stroke-linejoin="round" stroke-linecap="round"/><path d="M390,220 L500,220 L500,110" fill="none" stroke="#163248" stroke-width="3" stroke-linejoin="round" stroke-linecap="round"/><circle cx="290" cy="110" r="5" fill="#163248"/><circle cx="500" cy="110" r="5" fill="#163248"/><rect x="560" y="84" width="90" height="52" fill="#fff" stroke="#163248" stroke-width="3"/><text x="605" y="118" font-size="22" fill="#163248" text-anchor="middle" font-weight="700" font-family="Arial, Helvetica, sans-serif">K1</text><path d="M650,110 L840,110" fill="none" stroke="#163248" stroke-width="3" stroke-linejoin="round" stroke-linecap="round"/><text x="180" y="152" font-size="18" fill="#064f91" text-anchor="middle" font-weight="700" font-family="Arial, Helvetica, sans-serif">S0 STOPP</text><text x="180" y="174" font-size="16" fill="#163248" text-anchor="middle" font-weight="400" font-family="Arial, Helvetica, sans-serif">NC, sluten i vila</text><text x="360" y="52" font-size="18" fill="#064f91" text-anchor="middle" font-weight="700" font-family="Arial, Helvetica, sans-serif">S1 START</text><text x="360" y="74" font-size="16" fill="#163248" text-anchor="middle" font-weight="400" font-family="Arial, Helvetica, sans-serif">NO, öppen i vila</text><text x="360" y="256" font-size="18" fill="#064f91" text-anchor="middle" font-weight="700" font-family="Arial, Helvetica, sans-serif">K1 hållkontakt</text><text x="360" y="278" font-size="16" fill="#163248" text-anchor="middle" font-weight="400" font-family="Arial, Helvetica, sans-serif">NO, sluts när K1 drar</text><text x="605" y="166" font-size="18" fill="#064f91" text-anchor="middle" font-weight="700" font-family="Arial, Helvetica, sans-serif">Spole K1</text></svg>