<svg xmlns="http://www.w3.org/2000/svg" viewBox="0 0 320 200" role="img" aria-labelledby="title">
  <title id="title">Project Checklist Preview</title>
  <rect width="320" height="200" rx="24" fill="#E6FFF4" />
  <g fill="#17BF63">
    <rect x="52" y="44" width="20" height="20" rx="6" opacity="0.85" />
    <rect x="52" y="92" width="20" height="20" rx="6" opacity="0.75" />
    <rect x="52" y="140" width="20" height="20" rx="6" opacity="0.65" />
  </g>
  <g stroke="#17BF63" stroke-width="6" stroke-linecap="round" stroke-linejoin="round">
    <path d="M58 56l6 6 12-12" />
    <path d="M58 104l6 6 12-12" />
    <path d="M58 152l6 6 12-12" />
  </g>
  <rect x="92" y="48" width="180" height="12" rx="6" fill="#0D7D3B" opacity="0.5" />
  <rect x="92" y="68" width="150" height="12" rx="6" fill="#0D7D3B" opacity="0.35" />
  <rect x="92" y="96" width="180" height="12" rx="6" fill="#0D7D3B" opacity="0.5" />
  <rect x="92" y="116" width="150" height="12" rx="6" fill="#0D7D3B" opacity="0.35" />
  <rect x="92" y="144" width="180" height="12" rx="6" fill="#0D7D3B" opacity="0.5" />
  <rect x="92" y="164" width="150" height="12" rx="6" fill="#0D7D3B" opacity="0.35" />
</svg>
