<svg xmlns="http://www.w3.org/2000/svg" width="880" height="330" viewBox="0 0 880 330"><rect width="880" height="330" fill="#fff"/><text x="40" y="67" font-size="20" fill="#163248" text-anchor="middle" font-weight="700" font-family="Arial, Helvetica, sans-serif">L1</text><path d="M70,60 L160,60" fill="none" stroke="#163248" stroke-width="3" stroke-linejoin="round" stroke-linecap="round"/><rect x="160" y="49" width="60" height="22" fill="none" stroke="#163248" stroke-width="3"/><path d="M150,60 L230,60" fill="none" stroke="#163248" stroke-width="3" stroke-linejoin="round" stroke-linecap="round"/><path d="M230,60 L330,60" fill="none" stroke="#163248" stroke-width="3" stroke-linejoin="round" stroke-linecap="round"/><circle cx="330" cy="60" r="5" fill="#163248"/><path d="M330,60 L382,36" fill="none" stroke="#163248" stroke-width="3" stroke-linejoin="round" stroke-linecap="round"/><circle cx="392" cy="60" r="5" fill="#163248"/><path d="M392,60 L470,60" fill="none" stroke="#163248" stroke-width="3" stroke-linejoin="round" stroke-linecap="round"/><rect x="470" y="49" width="60" height="22" fill="#fff" stroke="#163248" stroke-width="3"/><path d="M478,60 h10 v-6 h12 v12 h12 v-6 h10" fill="none" stroke="#163248" stroke-width="2"/><path d="M530,60 L643.94448724536,60" fill="none" stroke="#163248" stroke-width="3" stroke-linejoin="round" stroke-linecap="round"/><text x="40" y="127" font-size="20" fill="#163248" text-anchor="middle" font-weight="700" font-family="Arial, Helvetica, sans-serif">L2</text><path d="M70,120 L160,120" fill="none" stroke="#163248" stroke-width="3" stroke-linejoin="round" stroke-linecap="round"/><rect x="160" y="109" width="60" height="22" fill="none" stroke="#163248" stroke-width="3"/><path d="M150,120 L230,120" fill="none" stroke="#163248" stroke-width="3" stroke-linejoin="round" stroke-linecap="round"/><path d="M230,120 L330,120" fill="none" stroke="#163248" stroke-width="3" stroke-linejoin="round" stroke-linecap="round"/><circle cx="330" cy="120" r="5" fill="#163248"/><path d="M330,120 L382,96" fill="none" stroke="#163248" stroke-width="3" stroke-linejoin="round" stroke-linecap="round"/><circle cx="392" cy="120" r="5" fill="#163248"/><path d="M392,120 L470,120" fill="none" stroke="#163248" stroke-width="3" stroke-linejoin="round" stroke-linecap="round"/><rect x="470" y="109" width="60" height="22" fill="#fff" stroke="#163248" stroke-width="3"/><path d="M478,120 h10 v-6 h12 v12 h12 v-6 h10" fill="none" stroke="#163248" stroke-width="2"/><path d="M530,120 L610.0,120" fill="none" stroke="#163248" stroke-width="3" stroke-linejoin="round" stroke-linecap="round"/><text x="40" y="187" font-size="20" fill="#163248" text-anchor="middle" font-weight="700" font-family="Arial, Helvetica, sans-serif">L3</text><path d="M70,180 L160,180" fill="none" stroke="#163248" stroke-width="3" stroke-linejoin="round" stroke-linecap="round"/><rect x="160" y="169" width="60" height="22" fill="none" stroke="#163248" stroke-width="3"/><path d="M150,180 L230,180" fill="none" stroke="#163248" stroke-width="3" stroke-linejoin="round" stroke-linecap="round"/><path d="M230,180 L330,180" fill="none" stroke="#163248" stroke-width="3" stroke-linejoin="round" stroke-linecap="round"/><circle cx="330" cy="180" r="5" fill="#163248"/><path d="M330,180 L382,156" fill="none" stroke="#163248" stroke-width="3" stroke-linejoin="round" stroke-linecap="round"/><circle cx="392" cy="180" r="5" fill="#163248"/><path d="M392,180 L470,180" fill="none" stroke="#163248" stroke-width="3" stroke-linejoin="round" stroke-linecap="round"/><rect x="470" y="169" width="60" height="22" fill="#fff" stroke="#163248" stroke-width="3"/><path d="M478,180 h10 v-6 h12 v12 h12 v-6 h10" fill="none" stroke="#163248" stroke-width="2"/><path d="M530,180 L643.94448724536,180" fill="none" stroke="#163248" stroke-width="3" stroke-linejoin="round" stroke-linecap="round"/><circle cx="720" cy="120" r="70" fill="#fff" stroke="#163248" stroke-width="3"/><text x="720" y="118" font-size="34" fill="#163248" text-anchor="middle" font-weight="700" font-family="Arial, Helvetica, sans-serif">M</text><text x="720" y="150" font-size="20" fill="#163248" text-anchor="middle" font-weight="400" font-family="Arial, Helvetica, sans-serif">3~</text><path d="M330,36 L330,204" fill="none" stroke="#9fb4c4" stroke-width="1.5" stroke-linejoin="round" stroke-dasharray="6 5"/><text x="190" y="240" font-size="20" fill="#064f91" text-anchor="middle" font-weight="700" font-family="Arial, Helvetica, sans-serif">F1</text><text x="190" y="264" font-size="17" fill="#163248" text-anchor="middle" font-weight="400" font-family="Arial, Helvetica, sans-serif">Säkringar</text><text x="360" y="240" font-size="20" fill="#064f91" text-anchor="middle" font-weight="700" font-family="Arial, Helvetica, sans-serif">K1</text><text x="360" y="264" font-size="17" fill="#163248" text-anchor="middle" font-weight="400" font-family="Arial, Helvetica, sans-serif">Kontaktor</text><text x="500" y="240" font-size="20" fill="#064f91" text-anchor="middle" font-weight="700" font-family="Arial, Helvetica, sans-serif">F2</text><text x="500" y="264" font-size="17" fill="#163248" text-anchor="middle" font-weight="400" font-family="Arial, Helvetica, sans-serif">Överlastskydd</text><text x="720" y="240" font-size="17" fill="#163248" text-anchor="middle" font-weight="400" font-family="Arial, Helvetica, sans-serif">Motor</text></svg>