<svg xmlns="http://www.w3.org/2000/svg" width="512" height="512" viewBox="0 0 512 512"><rect width="512" height="512" rx="100" fill="#294b60"/><circle cx="256" cy="245" r="182" fill="#f3ddab"/><path d="M78 318Q155 288 230 321T435 318V435H78" fill="#63929a"/><path d="M94 351Q154 331 218 353T416 351M104 383Q175 363 233 385T414 383" fill="none" stroke="#afcbbd" stroke-width="12"/><path d="M166 299V195H345V299" fill="#fcf0d0" stroke="#294b60" stroke-width="11"/><path d="M139 204L254 119L373 204Z" fill="#b4523d" stroke="#294b60" stroke-width="11"/><rect x="236" y="229" width="41" height="70" fill="#537479"/><rect x="183" y="226" width="31" height="35" fill="#afcbbd"/><rect x="299" y="226" width="31" height="35" fill="#afcbbd"/><circle cx="358" cy="125" r="30" fill="#e5b24a"/></svg>
